<?xml version="1.0" encoding="utf-8"?>
<!-- Generator: Adobe Illustrator 17.0.0, SVG Export Plug-In . SVG Version: 6.00 Build 0)  -->
<!DOCTYPE svg PUBLIC "-//W3C//DTD SVG 1.1//EN" "http://www.w3.org/Graphics/SVG/1.1/DTD/svg11.dtd" [
	<!ENTITY ns_extend "http://ns.adobe.com/Extensibility/1.0/">
	<!ENTITY ns_ai "http://ns.adobe.com/AdobeIllustrator/10.0/">
	<!ENTITY ns_graphs "http://ns.adobe.com/Graphs/1.0/">
	<!ENTITY ns_vars "http://ns.adobe.com/Variables/1.0/">
	<!ENTITY ns_imrep "http://ns.adobe.com/ImageReplacement/1.0/">
	<!ENTITY ns_sfw "http://ns.adobe.com/SaveForWeb/1.0/">
	<!ENTITY ns_custom "http://ns.adobe.com/GenericCustomNamespace/1.0/">
	<!ENTITY ns_adobe_xpath "http://ns.adobe.com/XPath/1.0/">
]>
<svg version="1.1" xmlns:x="&ns_extend;" xmlns:i="&ns_ai;" xmlns:graph="&ns_graphs;"
	 xmlns="http://www.w3.org/2000/svg" xmlns:xlink="http://www.w3.org/1999/xlink" x="0px" y="0px" width="83px"
	 height="63px" viewBox="0 0 93.324 73.196" enable-background="new 0 0 93.324 73.196" xml:space="preserve">
<metadata>
	<sfw  xmlns="&ns_sfw;">
		<slices></slices>
		<sliceSourceBounds  width="471.248" height="436.116" x="21.618" y="-317.627" bottomLeftOrigin="true"></sliceSourceBounds>
	</sfw>
</metadata>
<g id="Logo">
</g>
<g id="Layer_2">
	<g>
		<path fill="#FFFFFF" d="M30.448,47.371l34.536-1.766c1.379,6.469,7.135,11.339,14.011,11.339c7.901,0,14.33-6.428,14.33-14.33
			c0-6.388-4.205-11.81-9.991-13.654l1.053-7.244c0.108-0.739-0.4-1.427-1.136-1.54L16.86,9.827l-2.238-5.579
			c-0.157-0.392-0.487-0.688-0.893-0.803L1.731,0.053C1.004-0.156,0.255,0.27,0.052,0.993c-0.204,0.723,0.216,1.475,0.939,1.679
			l11.353,3.209l2.26,5.634c0.005,0.015,0.005,0.029,0.011,0.042l13.681,34.076c-3.085,2.669-4.547,5.442-4.304,8.252
			c0.405,4.713,5.459,7.502,5.673,7.618c0.199,0.109,0.422,0.166,0.648,0.166h48.253c0.752,0,1.361-0.609,1.361-1.361
			s-0.609-1.361-1.361-1.361H30.688c-0.902-0.569-3.753-2.576-3.986-5.294C26.531,51.658,27.801,49.546,30.448,47.371z
			 M41.708,16.455l4.264,10.621h-9.631l-4.907-12.223L41.708,16.455z M55.111,18.545l3.425,8.532h-9.631l-4.068-10.134
			L55.111,18.545z M68.511,20.634l2.587,6.443h-9.629l-3.229-8.043L68.511,20.634z M43.133,43.998l-5.7-14.199h9.631l5.507,13.716
			L43.133,43.998z M65.638,37.464l-3.077-7.665h9.629l0.07,0.174C69.247,31.586,66.884,34.247,65.638,37.464z M34.501,29.799
			l5.76,14.346l-9.437,0.484l-5.953-14.829H34.501z M55.446,43.368l-5.448-13.57h9.631l5.049,12.577
			c-0.001,0.081-0.012,0.158-0.012,0.239c0,0.094,0.012,0.186,0.015,0.28L55.446,43.368z M90.601,42.615
			c0,6.4-5.207,11.607-11.607,11.607c-6.4,0-11.607-5.207-11.607-11.607s5.207-11.607,11.607-11.607
			C85.394,31.008,90.601,36.215,90.601,42.615z M80.856,27.076h-6.825l-2.391-5.954l9.858,1.537L80.856,27.076z M28.305,14.366
			l5.103,12.71h-9.631l-5.746-14.312L28.305,14.366z"/>
		<path fill="#FFFFFF" d="M70.392,61.955c-3.099,0-5.621,2.522-5.621,5.621s2.522,5.621,5.621,5.621s5.621-2.522,5.621-5.621
			S73.491,61.955,70.392,61.955z M70.392,70.475c-1.598,0-2.898-1.3-2.898-2.898s1.3-2.898,2.898-2.898s2.898,1.3,2.898,2.898
			S71.99,70.475,70.392,70.475z"/>
		<path fill="#FFFFFF" d="M29.153,61.955c-3.1,0-5.621,2.522-5.621,5.621s2.521,5.621,5.621,5.621c3.099,0,5.621-2.522,5.621-5.621
			S32.251,61.955,29.153,61.955z M29.153,70.475c-1.598,0-2.899-1.3-2.899-2.898s1.301-2.898,2.899-2.898s2.899,1.3,2.899,2.898
			S30.751,70.475,29.153,70.475z"/>
		<path fill="#FFFFFF" d="M74.574,42.022c-0.531-0.531-1.393-0.531-1.925,0c-0.532,0.531-0.531,1.393,0,1.925l3.686,3.685
			c0.256,0.256,0.602,0.399,0.962,0.399c0.016,0,0.03-0.001,0.046-0.001c0.377-0.013,0.73-0.181,0.979-0.465l7.077-8.109
			c0.494-0.567,0.436-1.427-0.129-1.92c-0.567-0.494-1.425-0.436-1.92,0.129l-6.12,7.012L74.574,42.022z"/>
	</g>
</g>
</svg>
