<?xml version="1.0" encoding="utf-8"?>
<!-- Generator: Adobe Illustrator 17.0.0, SVG Export Plug-In . SVG Version: 6.00 Build 0)  -->
<!DOCTYPE svg PUBLIC "-//W3C//DTD SVG 1.1//EN" "http://www.w3.org/Graphics/SVG/1.1/DTD/svg11.dtd" [
	<!ENTITY ns_extend "http://ns.adobe.com/Extensibility/1.0/">
	<!ENTITY ns_ai "http://ns.adobe.com/AdobeIllustrator/10.0/">
	<!ENTITY ns_graphs "http://ns.adobe.com/Graphs/1.0/">
	<!ENTITY ns_vars "http://ns.adobe.com/Variables/1.0/">
	<!ENTITY ns_imrep "http://ns.adobe.com/ImageReplacement/1.0/">
	<!ENTITY ns_sfw "http://ns.adobe.com/SaveForWeb/1.0/">
	<!ENTITY ns_custom "http://ns.adobe.com/GenericCustomNamespace/1.0/">
	<!ENTITY ns_adobe_xpath "http://ns.adobe.com/XPath/1.0/">
]>
<svg version="1.1" xmlns:x="&ns_extend;" xmlns:i="&ns_ai;" xmlns:graph="&ns_graphs;"
	 xmlns="http://www.w3.org/2000/svg" xmlns:xlink="http://www.w3.org/1999/xlink" x="0px" y="0px" width="71.345px"
	 height="69.409px" viewBox="0 0 71.345 69.409" enable-background="new 0 0 71.345 69.409" xml:space="preserve">
<metadata>
	<sfw  xmlns="&ns_sfw;">
		<slices></slices>
		<sliceSourceBounds  width="471.248" height="436.116" x="21.618" y="-317.627" bottomLeftOrigin="true"></sliceSourceBounds>
	</sfw>
</metadata>
<g id="Logo">
</g>
<g id="Layer_2">
	<path fill="#FFFFFF" d="M71.345,33.737c0-3.984-3.025-7.272-6.897-7.695l-3.473-7.121c0.939-1.164,1.505-2.64,1.505-4.249
		c0-3.735-3.04-6.775-6.775-6.775c-1.402,0-2.703,0.427-3.785,1.158L43.422,4.91c-0.099-0.048-0.201-0.076-0.304-0.112
		C42.271,2.024,39.687,0,36.64,0C33.586,0,31,2.032,30.156,4.813c-0.139,0.043-0.278,0.087-0.413,0.153l-5.519,2.692
		c-1.736-1.646-4.074-2.664-6.649-2.664c-5.337,0-9.679,4.342-9.679,9.679c0,2.771,1.178,5.268,3.05,7.033l-1.149,2.358
		c-0.039,0-0.079-0.006-0.118-0.006C4.342,24.058,0,28.399,0,33.737s4.342,9.679,9.679,9.679c0.04,0,0.079-0.005,0.118-0.006
		l1.593,3.265C9.83,48.25,8.865,50.415,8.865,52.8c0,4.803,3.907,8.711,8.711,8.711c2.187,0,4.183-0.816,5.715-2.152l4.204,2.05
		c0.156,0.077,0.317,0.125,0.479,0.17c0.443,4.391,4.16,7.83,8.667,7.83c4.514,0,8.236-3.453,8.666-7.856
		c0.21-0.046,0.417-0.114,0.618-0.211l5.018-2.447c1.315,1.03,2.965,1.649,4.761,1.649c4.27,0,7.744-3.474,7.744-7.744
		c0-1.998-0.768-3.816-2.016-5.19l3.013-6.178C68.32,41.01,71.345,37.721,71.345,33.737z M65.882,33.737
		c0,1.258-1.023,2.28-2.28,2.28c-1.257,0-2.28-1.023-2.28-2.28c0-1.257,1.023-2.28,2.28-2.28
		C64.858,31.457,65.882,32.48,65.882,33.737z M55.705,13.361c0.723,0,1.312,0.588,1.312,1.312s-0.589,1.312-1.312,1.312
		c-0.725,0-1.312-0.589-1.312-1.312C54.392,13.949,54.981,13.361,55.705,13.361z M36.641,5.464c0.723,0,1.312,0.589,1.312,1.312
		s-0.589,1.311-1.312,1.311c-0.724,0-1.312-0.588-1.312-1.311C35.328,6.053,35.917,5.464,36.641,5.464z M17.576,10.457
		c2.324,0,4.215,1.891,4.215,4.215s-1.892,4.215-4.215,4.215c-2.325,0-4.215-1.89-4.215-4.215S15.251,10.457,17.576,10.457z
		 M5.464,33.737c0-2.325,1.892-4.215,4.216-4.215s4.215,1.891,4.215,4.215s-1.891,4.215-4.215,4.215S5.464,36.062,5.464,33.737z
		 M17.576,56.048c-1.791,0-3.248-1.457-3.248-3.248c0-1.79,1.457-3.248,3.248-3.248c1.79,0,3.248,1.457,3.248,3.248
		C20.823,54.591,19.367,56.048,17.576,56.048z M36.641,63.946c-1.791,0-3.248-1.457-3.248-3.248c0-1.79,1.457-3.248,3.248-3.248
		c1.79,0,3.248,1.457,3.248,3.248C39.888,62.489,38.431,63.946,36.641,63.946z M44.067,56.17c-1.532-2.503-4.284-4.183-7.427-4.183
		c-3.145,0-5.896,1.68-7.428,4.183l-3.127-1.525c0.129-0.596,0.201-1.212,0.201-1.845c0-4.802-3.907-8.71-8.711-8.71
		c-0.448,0-0.884,0.045-1.315,0.11l-1.185-2.432c2.581-1.74,4.282-4.691,4.282-8.031c0-3.34-1.701-6.291-4.283-8.031l0.743-1.523
		c0.571,0.106,1.157,0.168,1.759,0.168c5.337,0,9.679-4.342,9.679-9.678c0-0.786-0.105-1.545-0.282-2.277l3.984-1.943
		c1.21,1.861,3.303,3.098,5.684,3.098c2.38,0,4.473-1.237,5.683-3.099l6.682,3.259c-0.046,0.314-0.077,0.633-0.077,0.961
		c0,3.735,3.04,6.775,6.776,6.775c0.139,0,0.276-0.012,0.413-0.02l2.949,6.047c-1.94,1.408-3.21,3.688-3.21,6.264
		s1.269,4.856,3.21,6.264l-2.493,5.11c-0.286-0.032-0.575-0.052-0.87-0.052c-4.27,0-7.744,3.473-7.744,7.743
		c0,0.48,0.05,0.949,0.135,1.405L44.067,56.17z M55.705,55.082c-1.258,0-2.281-1.023-2.281-2.281c0-1.257,1.023-2.279,2.281-2.279
		c1.258,0,2.28,1.022,2.28,2.279C57.985,54.059,56.962,55.082,55.705,55.082z"/>
</g>
</svg>
