<?xml version="1.0" encoding="utf-8"?>
<!-- Generator: Adobe Illustrator 17.0.0, SVG Export Plug-In . SVG Version: 6.00 Build 0)  -->
<!DOCTYPE svg PUBLIC "-//W3C//DTD SVG 1.1//EN" "http://www.w3.org/Graphics/SVG/1.1/DTD/svg11.dtd" [
	<!ENTITY ns_extend "http://ns.adobe.com/Extensibility/1.0/">
	<!ENTITY ns_ai "http://ns.adobe.com/AdobeIllustrator/10.0/">
	<!ENTITY ns_graphs "http://ns.adobe.com/Graphs/1.0/">
	<!ENTITY ns_vars "http://ns.adobe.com/Variables/1.0/">
	<!ENTITY ns_imrep "http://ns.adobe.com/ImageReplacement/1.0/">
	<!ENTITY ns_sfw "http://ns.adobe.com/SaveForWeb/1.0/">
	<!ENTITY ns_custom "http://ns.adobe.com/GenericCustomNamespace/1.0/">
	<!ENTITY ns_adobe_xpath "http://ns.adobe.com/XPath/1.0/">
]>
<svg version="1.1" xmlns:x="&ns_extend;" xmlns:i="&ns_ai;" xmlns:graph="&ns_graphs;"
	 xmlns="http://www.w3.org/2000/svg" xmlns:xlink="http://www.w3.org/1999/xlink" x="0px" y="0px" width="74.073px"
	 height="74.074px" viewBox="0 0 74.073 74.074" enable-background="new 0 0 74.073 74.074" xml:space="preserve">
<metadata>
	<sfw  xmlns="&ns_sfw;">
		<slices></slices>
		<sliceSourceBounds  width="471.248" height="436.116" x="21.618" y="-317.627" bottomLeftOrigin="true"></sliceSourceBounds>
	</sfw>
</metadata>
<g id="Logo">
</g>
<g id="Layer_2">
	<g>
		<path fill="#FFFFFF" d="M37.509,29.037l4.669-4.675c0.363-0.356,0.473-0.897,0.292-1.372c-2.283-5.826-1.15-11.787,3.024-15.959
			c3.793-3.802,9.275-5.284,14.407-4.024L53.019,9.89c-1.489,1.49-2.315,3.473-2.315,5.584c0,2.109,0.826,4.086,2.315,5.582
			c1.496,1.487,3.473,2.315,5.581,2.315c2.11,0,4.095-0.827,5.581-2.315l6.881-6.881c1.26,5.135-0.219,10.613-4.022,14.41
			c-4.174,4.172-10.133,5.304-15.959,3.023c-0.662-0.261-1.401,0.07-1.661,0.732s0.07,1.4,0.724,1.661
			c2.307,0.904,4.63,1.346,6.889,1.346c4.409,0,8.575-1.693,11.827-4.945c5.007-5.007,6.565-12.504,3.983-19.101
			c-0.157-0.399-0.503-0.699-0.93-0.786c-0.424-0.088-0.866,0.047-1.173,0.353l-8.376,8.37c-1.001,1.007-2.339,1.559-3.764,1.559
			c-1.417,0-2.755-0.552-3.762-1.559c-1.008-1.007-1.559-2.347-1.559-3.764c0-1.427,0.551-2.764,1.559-3.763l8.367-8.378
			c0.308-0.307,0.441-0.748,0.355-1.173s-0.384-0.771-0.794-0.929c-6.591-2.582-14.085-1.024-19.093,3.985
			c-4.724,4.723-6.149,11.369-3.897,17.911l-4.086,4.093c-0.504,0.503-0.504,1.315,0,1.818
			C36.186,29.541,37.005,29.541,37.509,29.037z"/>
		<path fill="#FFFFFF" d="M31.014,50.588l-19.203,19.21c-0.031,0.022-2.464,2.37-5.204,1.504c-0.678-0.213-1.401,0.164-1.614,0.841
			c-0.213,0.679,0.157,1.402,0.834,1.616c0.709,0.219,1.394,0.315,2.047,0.315c3.244,0,5.622-2.33,5.748-2.458l19.21-19.21
			c0.504-0.503,0.504-1.316,0-1.818C32.329,50.093,31.518,50.093,31.014,50.588z"/>
		<path fill="#FFFFFF" d="M28.156,38.384c0.504-0.496,0.504-1.315,0-1.819c-0.505-0.497-1.316-0.497-1.82,0L2.45,60.452
			c-0.141,0.15-3.473,3.544-2.133,7.788c0.173,0.551,0.684,0.905,1.228,0.905c0.126,0,0.261-0.024,0.386-0.063
			c0.678-0.213,1.055-0.939,0.843-1.615c-0.866-2.74,1.481-5.171,1.496-5.195L28.156,38.384z"/>
		<path fill="#FFFFFF" d="M46.854,36.565c-0.141-0.136-0.314-0.244-0.504-0.308l-13.74-4.583L18.811,17.873
			c-0.244-0.242-0.567-0.377-0.905-0.377H9.285L3.159,7.3l3.259-3.26l10.197,6.126v3.944c0,0.71,0.581,1.282,1.291,1.282
			c0.709,0,1.283-0.572,1.283-1.282V9.435c0-0.449-0.236-0.867-0.621-1.104L6.883,1.325c-0.512-0.307-1.158-0.23-1.574,0.187
			L0.632,6.19c-0.41,0.418-0.497,1.063-0.19,1.568L7.45,19.441c0.236,0.393,0.653,0.63,1.102,0.63h8.818l13.644,13.644
			c0.005,0.006,0.013,0.007,0.019,0.013c0.107,0.102,0.233,0.184,0.374,0.247c0.021,0.01,0.041,0.019,0.062,0.027
			c0.017,0.006,0.031,0.016,0.049,0.021l13.73,4.584l23.155,23.147c0.032,0.031,2.881,2.981,2.016,5.715
			c-0.211,0.676,0.166,1.401,0.844,1.615c0.133,0.039,0.26,0.063,0.386,0.063c0.551,0,1.054-0.354,1.228-0.905
			c1.339-4.244-2.489-8.142-2.653-8.307L46.854,36.565z"/>
		<path fill="#FFFFFF" d="M66.592,71.302c-2.756,0.867-5.691-1.993-5.716-2.016L37.721,46.131l-2.243-6.723
			c-0.221-0.67-0.953-1.033-1.621-0.812c-0.678,0.22-1.04,0.953-0.819,1.623l2.339,7.013c0.063,0.19,0.173,0.363,0.315,0.498
			l23.367,23.374c0.134,0.135,2.983,2.938,6.447,2.938c0.606,0,1.229-0.087,1.859-0.284c0.676-0.213,1.047-0.937,0.834-1.616
			C67.985,71.466,67.262,71.09,66.592,71.302z"/>
		<path fill="#FFFFFF" d="M64.641,66.806c0.33,0,0.653-0.127,0.905-0.378c0.503-0.505,0.503-1.314,0-1.819L42.177,41.241
			c-0.503-0.504-1.314-0.504-1.819,0c-0.504,0.507-0.504,1.315,0,1.821l23.367,23.367C63.978,66.679,64.309,66.806,64.641,66.806z"
			/>
	</g>
</g>
</svg>
