<?xml version="1.0" encoding="utf-8"?>
<!-- Generator: Adobe Illustrator 17.0.0, SVG Export Plug-In . SVG Version: 6.00 Build 0)  -->
<!DOCTYPE svg PUBLIC "-//W3C//DTD SVG 1.1//EN" "http://www.w3.org/Graphics/SVG/1.1/DTD/svg11.dtd" [
	<!ENTITY ns_extend "http://ns.adobe.com/Extensibility/1.0/">
	<!ENTITY ns_ai "http://ns.adobe.com/AdobeIllustrator/10.0/">
	<!ENTITY ns_graphs "http://ns.adobe.com/Graphs/1.0/">
	<!ENTITY ns_vars "http://ns.adobe.com/Variables/1.0/">
	<!ENTITY ns_imrep "http://ns.adobe.com/ImageReplacement/1.0/">
	<!ENTITY ns_sfw "http://ns.adobe.com/SaveForWeb/1.0/">
	<!ENTITY ns_custom "http://ns.adobe.com/GenericCustomNamespace/1.0/">
	<!ENTITY ns_adobe_xpath "http://ns.adobe.com/XPath/1.0/">
]>
<svg version="1.1" xmlns:x="&ns_extend;" xmlns:i="&ns_ai;" xmlns:graph="&ns_graphs;"
	 xmlns="http://www.w3.org/2000/svg" xmlns:xlink="http://www.w3.org/1999/xlink" x="0px" y="0px" width="100px" height="77.037px"
	 viewBox="0 0 100 77.037" enable-background="new 0 0 100 77.037" xml:space="preserve">
<metadata>
	<sfw  xmlns="&ns_sfw;">
		<slices></slices>
		<sliceSourceBounds  width="471.248" height="436.116" x="21.618" y="-317.627" bottomLeftOrigin="true"></sliceSourceBounds>
	</sfw>
</metadata>
<g id="Logo">
</g>
<g id="Layer_2">
	<g>
		<circle fill="#FFFFFF" cx="50" cy="3.125" r="3.125"/>
		<circle fill="#FFFFFF" cx="40.021" cy="4.952" r="3.125"/>
		<circle fill="#FFFFFF" cx="31.287" cy="9.998" r="3.125"/>
		<circle fill="#FFFFFF" cx="24.803" cy="17.725" r="3.125"/>
		<path fill="#FFFFFF" d="M45.67,53.313c0-0.004-0.002-0.005-0.004-0.01l-4.022-10.059c-0.249-11.273-9.479-20.373-20.811-20.373
			C9.347,22.872,0,32.219,0,43.705c0,5.812,2.398,11.069,6.25,14.853v18.479h25v-7.248c5.743,0,9.375-3.675,9.375-9.419v-4.166
			h3.125c1.151,0,2.083-0.933,2.083-2.084C45.833,53.863,45.67,53.313,45.67,53.313z M12.5,52.039c-1.725,0-3.125-1.4-3.125-3.125
			c0-1.726,1.4-3.125,3.125-3.125s3.125,1.399,3.125,3.125C15.625,50.639,14.225,52.039,12.5,52.039z M12.5,43.705
			c-1.725,0-3.125-1.399-3.125-3.125c0-1.725,1.4-3.125,3.125-3.125s3.125,1.399,3.125,3.125
			C15.625,42.306,14.225,43.705,12.5,43.705z M20.833,52.039c-1.726,0-3.125-1.4-3.125-3.125c0-1.726,1.399-3.125,3.125-3.125
			c1.725,0,3.125,1.399,3.125,3.125C23.958,50.639,22.559,52.039,20.833,52.039z M20.833,43.705c-1.726,0-3.125-1.399-3.125-3.125
			c0-1.725,1.399-3.125,3.125-3.125c1.725,0,3.125,1.399,3.125,3.125C23.958,42.306,22.559,43.705,20.833,43.705z M20.833,35.372
			c-1.726,0-3.125-1.4-3.125-3.125c0-1.725,1.399-3.125,3.125-3.125c1.725,0,3.125,1.4,3.125,3.125
			C23.958,33.972,22.559,35.372,20.833,35.372z M29.167,52.039c-1.725,0-3.125-1.4-3.125-3.125c0-1.726,1.4-3.125,3.125-3.125
			c1.726,0,3.125,1.399,3.125,3.125C32.292,50.639,30.892,52.039,29.167,52.039z M29.167,43.705c-1.725,0-3.125-1.399-3.125-3.125
			c0-1.725,1.4-3.125,3.125-3.125c1.726,0,3.125,1.399,3.125,3.125C32.292,42.306,30.892,43.705,29.167,43.705z"/>
		<circle fill="#FFFFFF" cx="59.855" cy="4.952" r="3.125"/>
		<circle fill="#FFFFFF" cx="68.59" cy="9.998" r="3.125"/>
		<circle fill="#FFFFFF" cx="75.073" cy="17.725" r="3.125"/>
		<path fill="#FFFFFF" d="M79.167,22.872c-11.333,0-20.562,9.1-20.812,20.373l-4.021,10.059c-0.002,0.005-0.005,0.006-0.005,0.01
			c0,0-0.162,0.55-0.162,0.806c0,1.151,0.932,2.084,2.083,2.084h3.125v4.166c0,5.744,3.632,9.419,9.375,9.419v7.248h25V58.558
			c3.852-3.783,6.25-9.04,6.25-14.853C100,32.219,90.653,22.872,79.167,22.872z M79.167,52.039c-1.726,0-3.125-1.4-3.125-3.125
			c0-1.726,1.399-3.125,3.125-3.125c1.725,0,3.125,1.399,3.125,3.125C82.292,50.639,80.892,52.039,79.167,52.039z M79.167,43.705
			c-1.726,0-3.125-1.399-3.125-3.125c0-1.725,1.399-3.125,3.125-3.125c1.725,0,3.125,1.399,3.125,3.125
			C82.292,42.306,80.892,43.705,79.167,43.705z M79.167,35.372c-1.726,0-3.125-1.4-3.125-3.125c0-1.725,1.399-3.125,3.125-3.125
			c1.725,0,3.125,1.4,3.125,3.125C82.292,33.972,80.892,35.372,79.167,35.372z"/>
	</g>
</g>
</svg>
