<?xml version="1.0" encoding="utf-8"?>
<!-- Generator: Adobe Illustrator 17.0.0, SVG Export Plug-In . SVG Version: 6.00 Build 0)  -->
<!DOCTYPE svg PUBLIC "-//W3C//DTD SVG 1.1//EN" "http://www.w3.org/Graphics/SVG/1.1/DTD/svg11.dtd" [
	<!ENTITY ns_extend "http://ns.adobe.com/Extensibility/1.0/">
	<!ENTITY ns_ai "http://ns.adobe.com/AdobeIllustrator/10.0/">
	<!ENTITY ns_graphs "http://ns.adobe.com/Graphs/1.0/">
	<!ENTITY ns_vars "http://ns.adobe.com/Variables/1.0/">
	<!ENTITY ns_imrep "http://ns.adobe.com/ImageReplacement/1.0/">
	<!ENTITY ns_sfw "http://ns.adobe.com/SaveForWeb/1.0/">
	<!ENTITY ns_custom "http://ns.adobe.com/GenericCustomNamespace/1.0/">
	<!ENTITY ns_adobe_xpath "http://ns.adobe.com/XPath/1.0/">
]>
<svg version="1.1" xmlns:x="&ns_extend;" xmlns:i="&ns_ai;" xmlns:graph="&ns_graphs;"
	 xmlns="http://www.w3.org/2000/svg" xmlns:xlink="http://www.w3.org/1999/xlink" x="0px" y="0px" width="69.392px"
	 height="63.093px" viewBox="0 0 69.392 63.093" enable-background="new 0 0 69.392 63.093" xml:space="preserve">
<metadata>
	<sfw  xmlns="&ns_sfw;">
		<slices></slices>
		<sliceSourceBounds  width="471.248" height="436.116" x="21.618" y="-317.627" bottomLeftOrigin="true"></sliceSourceBounds>
	</sfw>
</metadata>
<g id="Logo">
</g>
<g id="Layer_2">
	<g>
		<path fill="#FFFFFF" d="M39.88,22.341c-1.616,0-3.133,0.629-4.275,1.771c-1.142,1.142-1.771,2.66-1.771,4.275
			c0,1.616,0.629,3.134,1.771,4.275c1.141,1.142,2.659,1.772,4.275,1.772s3.133-0.63,4.275-1.772c2.358-2.357,2.359-6.193,0-8.55
			C43.014,22.969,41.496,22.341,39.88,22.341z M42.083,30.589c-0.588,0.588-1.371,0.912-2.203,0.912
			c-0.832,0-1.615-0.324-2.203-0.913c-0.588-0.587-0.912-1.37-0.912-2.202s0.324-1.614,0.912-2.203
			c0.588-0.587,1.371-0.912,2.203-0.912c0.832,0,1.615,0.324,2.202,0.912C43.298,27.399,43.298,29.375,42.083,30.589z"/>
		<path fill="#FFFFFF" d="M67.953,1.112C67.225,0.384,66.301,0,65.277,0c-3.087,0-6.682,3.364-11.816,8.499
			c-3.327,3.327-6.384,6.384-7.564,9.063l-5.37-5.37c-0.364-0.364-0.892-0.511-1.392-0.386l-8.292,2.073
			c-0.258,0.064-0.493,0.198-0.681,0.386L0.623,43.804c-0.311,0.312-0.447,0.727-0.42,1.135c-0.328,0.557-0.258,1.279,0.207,1.761
			c13.059,13.55,21.052,16.393,25.457,16.393c1.644,0,2.765-0.383,3.462-0.74c0.305-0.042,0.6-0.175,0.833-0.41l23.84-23.84
			c0.187-0.187,0.321-0.423,0.386-0.681l2.074-8.293c0.124-0.499-0.021-1.027-0.386-1.392l-4.111-4.11
			c3.335-0.664,7.374-3.102,10.973-6.7C68.973,10.893,71.081,4.241,67.953,1.112z M25.867,60.161c-2.321,0-6.863-1.098-14.321-7.113
			c3.046,1.204,6.446,2.1,9.816,2.1c1.231,0,2.418-0.121,3.546-0.363c0.037,1.574,0.335,3.7,1.479,5.358
			C26.226,60.155,26.053,60.161,25.867,60.161z M51.641,36.319L29.115,58.847c-1.712-1.788-1.201-5.779-1.194-5.82
			c0.076-0.514-0.124-1.03-0.527-1.356c-0.404-0.327-0.951-0.417-1.436-0.234c-1.387,0.517-2.933,0.781-4.596,0.781
			c-7.385,0-15.316-5.081-18.024-6.983l28.611-28.611l7.093-1.773l7.15,7.15c0.123,0.157,0.255,0.313,0.407,0.465
			c0.133,0.133,0.276,0.253,0.425,0.367l6.392,6.392L51.641,36.319z M50.23,20.886c-0.553,0-0.99-0.104-1.312-0.305l-0.361-0.361
			c-1.027-1.635,3.39-6.061,6.978-9.648c3.224-3.224,7.64-7.639,9.743-7.639c0.252,0,0.421,0.071,0.603,0.253
			c1.607,1.607-0.025,6.68-5.016,11.67C56.699,19.021,52.522,20.886,50.23,20.886z"/>
	</g>
</g>
</svg>
