<?xml version="1.0" encoding="utf-8"?>
<!-- Generator: Adobe Illustrator 17.0.0, SVG Export Plug-In . SVG Version: 6.00 Build 0)  -->
<!DOCTYPE svg PUBLIC "-//W3C//DTD SVG 1.1//EN" "http://www.w3.org/Graphics/SVG/1.1/DTD/svg11.dtd" [
	<!ENTITY ns_extend "http://ns.adobe.com/Extensibility/1.0/">
	<!ENTITY ns_ai "http://ns.adobe.com/AdobeIllustrator/10.0/">
	<!ENTITY ns_graphs "http://ns.adobe.com/Graphs/1.0/">
	<!ENTITY ns_vars "http://ns.adobe.com/Variables/1.0/">
	<!ENTITY ns_imrep "http://ns.adobe.com/ImageReplacement/1.0/">
	<!ENTITY ns_sfw "http://ns.adobe.com/SaveForWeb/1.0/">
	<!ENTITY ns_custom "http://ns.adobe.com/GenericCustomNamespace/1.0/">
	<!ENTITY ns_adobe_xpath "http://ns.adobe.com/XPath/1.0/">
]>
<svg version="1.1" xmlns:x="&ns_extend;" xmlns:i="&ns_ai;" xmlns:graph="&ns_graphs;"
	 xmlns="http://www.w3.org/2000/svg" xmlns:xlink="http://www.w3.org/1999/xlink" x="0px" y="0px" width="67.2px" height="61.297px"
	 viewBox="0 0 67.2 61.297" enable-background="new 0 0 67.2 61.297" xml:space="preserve">
<metadata>
	<sfw  xmlns="&ns_sfw;">
		<slices></slices>
		<sliceSourceBounds  width="471.248" height="436.116" x="21.618" y="-317.627" bottomLeftOrigin="true"></sliceSourceBounds>
	</sfw>
</metadata>
<g id="Logo">
</g>
<g id="Layer_2">
	<g>
		<path fill="#FFFFFF" d="M18.036,38.686l-6.889,6.894V39.5c0-0.632-0.513-1.152-1.145-1.152H7.049
			c-0.485,0-4.751-0.169-4.751-4.752V7.05c0-0.485,0.169-4.759,4.751-4.759h41.299c0.485,0.007,4.758,0.175,4.758,4.751v3.69
			c0,0.632,0.514,1.146,1.146,1.146c0.632,0,1.146-0.513,1.146-1.146v-3.69C55.399,1.469,50.788,0,48.349,0H7.049
			C1.476,0,0,4.611,0,7.043v26.554c0,5.574,4.611,7.049,7.049,7.049h1.8v7.704c0,0.464,0.281,0.878,0.71,1.062
			c0.141,0.056,0.288,0.083,0.444,0.083c0.295,0,0.59-0.112,0.808-0.337l8.849-8.849c0.449-0.45,0.449-1.173,0-1.622
			C19.209,38.235,18.485,38.235,18.036,38.686z"/>
		<path fill="#FFFFFF" d="M60.15,14.744H30.651c-2.439,0-7.05,1.476-7.05,7.05v23.602c0,5.575,4.611,7.051,7.05,7.051H39.5
			c0.634,0,1.146-0.514,1.146-1.146c0-0.64-0.513-1.152-1.146-1.152h-8.848c-0.485,0-4.75-0.169-4.75-4.752V21.795
			c0-4.576,4.266-4.751,4.75-4.751H60.15c4.582,0,4.751,4.273,4.758,4.751v23.602c0,4.583-4.273,4.752-4.758,4.752h-5.897
			c-0.632,0-1.146,0.513-1.146,1.152v6.081l-6.894-6.896c-0.451-0.449-1.174-0.449-1.624,0c-0.45,0.45-0.45,1.173,0,1.622
			l8.849,8.85c0.225,0.226,0.513,0.339,0.815,0.339c0.147,0,0.294-0.029,0.435-0.085c0.429-0.182,0.711-0.597,0.711-1.062v-7.702
			h4.75c2.438,0,7.05-1.476,7.05-7.051V21.795C67.2,19.356,65.724,14.744,60.15,14.744z"/>
		<path fill="#FFFFFF" d="M33.604,28.845h23.601c0.632,0,1.146-0.513,1.146-1.147c0-0.639-0.514-1.151-1.146-1.151H33.604
			c-0.632,0-1.152,0.513-1.152,1.151C32.451,28.332,32.97,28.845,33.604,28.845z"/>
		<path fill="#FFFFFF" d="M33.604,34.742h23.601c0.632,0,1.146-0.513,1.146-1.146c0-0.632-0.514-1.145-1.146-1.145H33.604
			c-0.632,0-1.152,0.513-1.152,1.145C32.451,34.228,32.97,34.742,33.604,34.742z"/>
		<path fill="#FFFFFF" d="M33.604,40.645h23.601c0.632,0,1.146-0.513,1.146-1.145c0-0.632-0.514-1.152-1.146-1.152H33.604
			c-0.632,0-1.152,0.519-1.152,1.152S32.97,40.645,33.604,40.645z"/>
	</g>
</g>
</svg>
