<?xml version="1.0" encoding="utf-8"?>
<!-- Generator: Adobe Illustrator 17.0.0, SVG Export Plug-In . SVG Version: 6.00 Build 0)  -->
<!DOCTYPE svg PUBLIC "-//W3C//DTD SVG 1.1//EN" "http://www.w3.org/Graphics/SVG/1.1/DTD/svg11.dtd" [
	<!ENTITY ns_extend "http://ns.adobe.com/Extensibility/1.0/">
	<!ENTITY ns_ai "http://ns.adobe.com/AdobeIllustrator/10.0/">
	<!ENTITY ns_graphs "http://ns.adobe.com/Graphs/1.0/">
	<!ENTITY ns_vars "http://ns.adobe.com/Variables/1.0/">
	<!ENTITY ns_imrep "http://ns.adobe.com/ImageReplacement/1.0/">
	<!ENTITY ns_sfw "http://ns.adobe.com/SaveForWeb/1.0/">
	<!ENTITY ns_custom "http://ns.adobe.com/GenericCustomNamespace/1.0/">
	<!ENTITY ns_adobe_xpath "http://ns.adobe.com/XPath/1.0/">
]>
<svg version="1.1" xmlns:x="&ns_extend;" xmlns:i="&ns_ai;" xmlns:graph="&ns_graphs;"
	 xmlns="http://www.w3.org/2000/svg" xmlns:xlink="http://www.w3.org/1999/xlink" x="0px" y="0px" width="456.764px"
	 height="135.254px" viewBox="0 0 456.764 135.254" enable-background="new 0 0 456.764 135.254" xml:space="preserve">
<metadata>
	<sfw  xmlns="&ns_sfw;">
		<slices></slices>
		<sliceSourceBounds  width="471.248" height="436.116" x="21.618" y="-317.627" bottomLeftOrigin="true"></sliceSourceBounds>
	</sfw>
</metadata>
<g id="Logo">
	<g>
		<g>
			<path fill="#FFFFFF" d="M0,56.49c0.813-0.98,1.483-2.148,2.469-2.902c2.071-1.584,5.298-1.212,7.226,0.741
				c0.684,0.693,1.189,0.811,2.065,0.39c2.614-1.257,5.288-2.39,7.904-3.645c0.353-0.169,0.761-0.794,0.71-1.145
				c-0.589-4.075,0.779-7.168,4.56-9.205c-0.972-2.979-1.932-5.923-2.901-8.892c-2.479,0.035-4.548-0.599-5.904-2.749
				c-1.609-2.552-0.979-5.997,1.452-7.79c2.461-1.814,5.981-1.34,7.976,1.076c1.901,2.301,1.713,5.959-0.622,7.852
				c-1.149,0.932-1.223,1.72-0.744,2.977c0.821,2.158,1.473,4.38,2.199,6.574c0.033,0.099,0.1,0.188,0.209,0.387
				c0.844,0,1.76-0.1,2.648,0.017c4.749,0.624,7.717,4.902,6.733,9.757c-0.166,0.818-0.142,1.246,0.656,1.659
				c6.68,3.456,13.338,6.952,20.172,10.524c2.392-3.475,5.661-5.603,9.977-5.97c0-8.098,0-16.097,0-24.085
				c-7.335-1.366-9.209-9.157-4.597-14.182c-1.508-2.121-3.005-4.276-4.575-6.375c-0.203-0.271-0.818-0.415-1.192-0.347
				c-3.711,0.676-6.292-0.52-7.387-3.487c-1.105-2.995,0.144-5.705,3.477-7.551c0.044-0.024,0.071-0.08,0.106-0.121
				c1.291,0,2.582,0,3.874,0c1.494,0.965,2.911,1.965,3.486,3.81c0.725,2.324,0.01,4.293-1.394,6.114
				c1.711,2.373,3.365,4.669,5.069,7.032c2.618-1.28,5.151-1.303,7.714-0.151c0.298,0.134,0.979-0.046,1.176-0.309
				c1.63-2.182,3.188-4.418,4.773-6.645c-1.483-1.671-2.018-3.509-1.555-5.605C76.215,2.181,77.714,1.005,79.409,0
				c1.291,0,2.582,0,3.874,0c2.223,1.233,3.9,2.804,3.864,5.629c-0.049,3.786-3.219,6.48-6.917,5.625
				c-1.267-0.293-1.908-0.028-2.594,1.03c-1.313,2.024-2.79,3.941-4.19,5.89c4.5,5.744,1.486,12.856-4.938,13.842
				c0,8.016,0,16.049,0,24.133c3.82,0.354,6.894,2.04,9.319,5.101c7.032-4.471,13.995-8.898,20.662-13.137
				c0-2.222-0.342-4.242,0.069-6.096c0.943-4.256,5.287-6.586,9.652-5.491c4.2,1.053,6.712,5.289,5.699,9.611
				c-0.978,4.174-5.186,6.949-9.31,5.925c-1.406-0.349-2.761-1.153-3.957-2.006c-0.769-0.549-1.187-0.565-1.939-0.083
				c-6.599,4.232-13.225,8.421-19.983,12.713c1.603,3.176,1.847,6.521,0.887,10.064c3.252,1.343,6.42,2.655,9.59,3.96
				c4.174,1.718,8.355,3.417,12.52,5.156c0.725,0.303,1.165,0.376,1.743-0.385c2.877-3.785,8.076-4.449,11.548-1.562
				c3.554,2.956,3.935,8.015,0.879,11.651c-0.137,0.163-0.275,0.325-0.472,0.556c1.129,1.563,2.178,3.181,3.424,4.63
				c0.33,0.384,1.312,0.442,1.921,0.311c2.965-0.635,5.875,0.917,6.818,3.751c0.959,2.881-0.344,5.953-3.05,7.188
				c-2.062,0.941-4.877,0.474-6.475-1.074c-1.726-1.672-2.232-4.299-1.216-6.549c0.283-0.628,0.684-1.203,1.092-1.909
				c-1.266-1.716-2.567-3.479-3.917-5.309c-2.82,1.349-5.597,1.463-8.231-0.151c-2.9-1.776-4.063-4.498-3.714-7.831
				c0.109-1.04-0.181-1.47-1.161-1.866c-6.976-2.814-13.92-5.71-20.875-8.576c-0.34-0.14-0.696-0.241-1.114-0.383
				c-1.828,3.528-4.708,5.69-8.592,6.7c0.694,4.62,1.375,9.173,2.064,13.726c0.474,3.132,0.92,6.269,1.482,9.385
				c0.076,0.424,0.722,1.007,1.161,1.063c6.187,0.787,9.308,7.163,5.98,12.428c-0.501,0.793-0.541,1.242,0.104,1.917
				c1.519,1.59,2.964,3.25,4.125,4.534c2.203,0,4.122-0.373,5.812,0.091c2.314,0.634,3.444,2.565,3.524,5.043
				c0.085,2.608-1.056,4.419-3.369,5.548c-0.283,0.138-0.55,0.307-0.825,0.461c-0.968,0-1.937,0-2.905,0
				c-1.049-0.715-2.316-1.247-3.103-2.182c-1.988-2.36-1.594-4.933-0.055-7.43c-1.805-1.988-3.558-3.917-5.31-5.846
				c-3.118,1.966-6.131,1.807-9.17,0.184c-1.261,1.486-2.459,2.922-3.684,4.334c-0.674,0.777-1.102,1.454-0.278,2.487
				c0.423,0.531,0.5,1.4,0.577,2.133c0.342,3.223-1.45,5.08-4.156,6.319c-0.968,0-1.937,0-2.905,0
				c-2.659-1.071-4.447-2.82-4.417-5.884c0.043-4.399,4.112-6.707,8.874-4.948c1.387-1.637,2.827-3.292,4.197-5.003
				c0.187-0.234,0.164-0.815,0.008-1.117c-3.143-6.115-1.986-9.774,4.252-13.037c-1.191-7.906-2.388-15.854-3.607-23.941
				c-4.083,0.146-7.618-1.126-10.549-4.214c-16.97,13.057-33.895,26.08-50.913,39.174c-0.375-0.395-0.69-0.726-1.17-1.232
				c17.053-13.129,34.003-26.179,51.048-39.303c-2.349-3.846-2.565-7.838-1.066-12.106c-6.993-3.66-13.977-7.316-20.943-10.961
				c-3.882,4.581-10.021,4.777-13.928-0.424c-3.282,1.5-6.587,3.01-9.918,4.532c0.486,2.782-0.218,5.041-2.541,6.57
				c-2.593,1.707-6.267,0.842-7.954-1.788C0.511,61.17,0.256,60.766,0,60.364C0,59.073,0,57.781,0,56.49z"/>
			<path fill="#FFFFFF" d="M456.764,39.705c-4.813-0.736-7.986,2.251-8.092,7.745c-0.079,4.084-0.02,8.171-0.022,12.256
				c0,0.576,0,1.152,0,1.815c-1.702,0-3.227,0-4.918,0c0-8.728,0-17.358,0-26.096c1.281,0,2.603,0,4.131,0
				c0.073,1.394,0.147,2.797,0.238,4.535c1.949-3.711,4.6-5.681,8.663-5.098C456.764,36.477,456.764,38.091,456.764,39.705z"/>
			<path fill="#FFFFFF" d="M160.688,62.247c-7.96,0.022-13.203-5.06-13.468-12.158c-0.144-3.853,0.309-7.534,2.828-10.65
				c3.587-4.437,8.33-5.44,13.632-4.241c4.807,1.087,8.188,4.96,8.909,9.931c0.661,4.56,0.235,8.914-2.809,12.652
				C167.22,60.923,163.753,62.106,160.688,62.247z M152.245,48.465c-0.024,2.544,0.603,4.885,2.113,6.968
				c2.834,3.909,8.233,3.971,11.114,0.118c2.881-3.853,3.026-9.586,0.35-13.803c-2.493-3.928-8.224-4.243-11.177-0.632
				C152.889,43.262,152.263,45.76,152.245,48.465z"/>
			<path fill="#FFFFFF" d="M374.222,39.331c1.879-2.543,4.076-4.048,6.956-4.431c5.537-0.738,9.825,2.337,10.614,7.853
				c0.355,2.484,0.309,5.032,0.345,7.552c0.052,3.696,0.013,7.393,0.013,11.198c-1.685,0-3.218,0-4.944,0
				c-0.026-0.544-0.077-1.112-0.078-1.681c-0.007-4.3-0.001-8.599-0.006-12.899c-0.001-0.698,0.008-1.401-0.063-2.094
				c-0.389-3.821-2.562-5.958-5.944-5.878c-3.409,0.081-6.317,2.944-6.373,6.46c-0.075,4.728-0.022,9.459-0.024,14.189
				c0,0.585,0,1.17,0,1.883c-1.638,0-3.166,0-4.892,0c0-8.621,0-17.282,0-26.027c1.254,0,2.526,0,4.063,0
				C373.99,36.624,374.092,37.811,374.222,39.331z"/>
			<path fill="#FFFFFF" d="M259.664,49.425c-6.486,0-12.44,0-18.37,0c-0.639,4.183,2.339,8.219,6.673,8.625
				c2.459,0.23,4.992-0.303,7.488-0.536c0.514-0.048,1.01-0.293,1.459-0.43c0.121,0.094,0.186,0.118,0.198,0.158
				c1.227,3.986,1.277,3.471-2.2,4.221c-2.582,0.556-5.35,0.682-7.989,0.458c-5.158-0.438-8.894-3.803-10.053-8.847
				c-1.274-5.543-0.558-10.761,3.563-15.006c3.178-3.273,7.222-3.942,11.491-2.828c3.999,1.044,6.139,4.028,7.009,7.893
				C259.373,45.085,259.411,47.128,259.664,49.425z M254.585,45.771c0.307-4.071-2.162-7.167-5.802-7.38
				c-4.041-0.237-7.27,2.925-7.503,7.38C245.719,45.771,250.156,45.771,254.585,45.771z"/>
			<path fill="#FFFFFF" d="M363.962,49.397c-6.136,0-12.086,0-18.008,0c-0.852,3.928,2.24,8.218,6.542,8.638
				c2.505,0.244,5.091-0.303,7.636-0.537c0.511-0.047,1.004-0.286,1.456-0.422c0.115,0.126,0.171,0.16,0.184,0.206
				c1.085,3.815,1.324,3.334-2.291,4.221c-2.007,0.492-4.157,0.691-6.224,0.6c-7.393-0.325-11.911-4.678-12.2-12.071
				c-0.104-2.655,0.406-5.505,1.351-7.995c2.176-5.734,8.26-8.607,14.107-6.751c1.787,0.567,3.594,1.82,4.82,3.248
				C363.921,41.544,364.362,45.284,363.962,49.397z M359.253,45.782c0.081-4.274-2.235-7.154-5.79-7.39
				c-4.022-0.266-7.077,2.67-7.609,7.39C350.296,45.782,354.728,45.782,359.253,45.782z"/>
			<path fill="#FFFFFF" d="M435.801,57.112c0.258,1.12,0.507,2.198,0.802,3.482c-5.575,1.8-10.97,2.639-16.255-0.466
				c-2.163-1.271-3.612-3.225-4.427-5.574c-1.53-4.408-1.359-8.798,0.639-13.018c2.427-5.127,7.52-7.612,13.084-6.545
				c4.645,0.891,7.974,5.004,8.342,10.383c0.087,1.272,0.013,2.555,0.013,3.991c-6.145,0-12.133,0-18.092,0
				c-0.673,4.235,2.394,8.195,6.758,8.751c1.476,0.188,3.011,0.158,4.493-0.005C432.638,57.949,434.087,57.495,435.801,57.112z
				 M433.142,45.78c0.39-3.913-2.029-7.098-5.536-7.384c-4.095-0.334-7.332,2.725-7.731,7.384
				C424.304,45.78,428.727,45.78,433.142,45.78z"/>
			<path fill="#FFFFFF" d="M208.456,35.442c1.306,0,2.633,0,4.095,0c0.095,1.214,0.185,2.357,0.299,3.803
				c1.682-2.144,3.506-3.548,5.889-4.158c5.573-1.426,10.954,1.577,11.549,7.222c0.666,6.323,0.456,12.738,0.63,19.212
				c-1.877,0-3.408,0-5.165,0c0-0.623,0-1.197,0-1.77c0-4.357,0.017-8.715-0.013-13.072c-0.007-1.015-0.079-2.048-0.283-3.039
				c-0.482-2.34-1.754-4.087-4.21-4.563c-2.523-0.489-4.855,0.192-6.263,2.358c-0.887,1.365-1.508,3.141-1.572,4.759
				c-0.197,5.044-0.072,10.101-0.072,15.287c-1.616,0-3.139,0-4.883,0C208.456,52.878,208.456,44.259,208.456,35.442z"/>
			<path fill="#FFFFFF" d="M178.566,35.465c1.277,0,2.597,0,4.108,0c0.131,1.128,0.264,2.275,0.397,3.423
				c0.111,0.099,0.221,0.199,0.332,0.298c0.173-0.319,0.292-0.686,0.527-0.95c2.866-3.228,6.482-4.19,10.526-3.018
				c3.978,1.153,5.952,4.239,6.235,8.174c0.312,4.333,0.188,8.699,0.241,13.05c0.02,1.656,0.003,3.312,0.003,5.069
				c-1.701,0-3.229,0-4.96,0c0-1.543,0-3.031,0-4.519c0-3.441,0.01-6.882-0.007-10.322c-0.004-0.749-0.043-1.508-0.169-2.245
				c-0.647-3.811-2.748-5.661-6.141-5.452c-3.275,0.202-6.011,2.983-6.074,6.408c-0.088,4.783-0.028,9.569-0.031,14.354
				c0,0.575,0,1.15,0,1.789c-1.746,0-3.276,0-4.988,0C178.566,52.811,178.566,44.188,178.566,35.465z"/>
			<path fill="#FFFFFF" d="M287.063,39.276c0-1.53,0-2.645,0-3.906c1.236,0,2.402,0,3.849,0c0-1.773,0.045-3.414-0.018-5.051
				c-0.035-0.918,0.254-1.366,1.192-1.539c1.195-0.22,2.361-0.593,3.743-0.954c0,2.533,0,4.872,0,7.393c2.282,0,4.404,0,6.68,0
				c0,1.376,0,2.572,0,3.954c-2.088,0-4.212,0-6.171,0c-0.234,0.26-0.366,0.339-0.366,0.418c-0.015,4.997-0.117,9.997,0.014,14.99
				c0.07,2.654,1.682,3.741,4.36,3.382c0.521-0.07,1.049-0.089,1.649-0.137c0.052,0.348,0.101,0.602,0.127,0.858
				c0.328,3.207,0.289,3.252-2.937,3.5c-5.292,0.407-8.069-2.113-8.219-7.673c-0.119-4.405-0.044-8.816-0.054-13.224
				c-0.001-0.585,0-1.17,0-2.012C289.572,39.276,288.327,39.276,287.063,39.276z"/>
			<path fill="#FFFFFF" d="M400.275,39.25c-1.306,0-2.472,0-3.746,0c0-1.34,0-2.539,0-3.882c1.209,0,2.377,0,3.836,0
				c0-1.715,0.056-3.304-0.02-4.886c-0.051-1.046,0.273-1.563,1.354-1.737c1.146-0.185,2.26-0.565,3.59-0.913
				c0,2.527,0,4.868,0,7.444c2.321,0,4.486,0,6.739,0c0,1.396,0,2.556,0,3.894c-2.145,0-4.273,0-6.245,0
				c-0.227,0.255-0.359,0.335-0.36,0.416c-0.019,5.001-0.119,10.004,0.003,15.001c0.064,2.622,1.798,3.821,4.372,3.414
				c0.475-0.075,0.953-0.129,1.682-0.226c0.109,1.093,0.246,2.125,0.29,3.161c0.01,0.237-0.245,0.581-0.472,0.717
				c-2.857,1.709-8.503,0.313-9.822-2.656c-0.717-1.615-1.003-3.52-1.062-5.309c-0.146-4.46-0.049-8.928-0.055-13.393
				C400.36,40.033,400.319,39.771,400.275,39.25z"/>
			<path fill="#FFFFFF" d="M283.038,56.896c0.262,1.032,0.582,1.997,0.716,2.987c0.045,0.335-0.295,0.948-0.604,1.07
				c-4.685,1.863-12.535,2.224-16.957-3.063c-5.088-6.084-4.457-20.271,7.715-22.736c3.357-0.68,6.734-0.482,10.137,1.046
				c-0.373,1.265-0.74,2.509-1.117,3.787c-4.875-1.666-9.426-2.072-12.83,2.458c-2.553,3.398-2.55,8.758-0.007,12.125
				C273.57,59.174,278.157,58.692,283.038,56.896z"/>
			<path fill="#FFFFFF" d="M144.207,36.275c-0.367,1.251-0.711,2.425-1.082,3.689c-5.017-1.674-9.792-2.098-13.143,2.912
				c-2.315,3.462-2.14,8.706,0.385,11.871c3.519,4.411,8.07,3.939,12.709,2.209c0.115,0.143,0.222,0.216,0.243,0.309
				c0.867,3.794,1.484,3.598-2.544,4.452c-5.043,1.069-10.006,0.805-13.774-3.254c-4.256-4.586-4.613-10.099-2.402-15.666
				c2.074-5.223,6.35-7.666,11.888-7.9C140.033,34.746,141.838,35.105,144.207,36.275z"/>
			<path fill="#FFFFFF" d="M337.02,56.913c0.291,1.238,0.559,2.373,0.923,3.92c-1.843,0.421-3.613,0.959-5.422,1.216
				c-8.621,1.227-14.81-3.764-15.299-12.594c-0.516-9.305,6.083-14.6,13.276-14.537c2.069,0.018,4.136,0.462,6.199,0.747
				c1.122,0.155,1.388,0.781,0.955,1.827c-0.324,0.782-0.518,1.618-0.778,2.455c-4.859-1.6-9.473-2.077-12.889,2.566
				c-2.542,3.456-2.352,8.867,0.164,12.273C326.721,58.269,330.464,58.923,337.02,56.913z"/>
			<path fill="#EC285C" d="M154.809,78.023c1.191-0.48,2.049-0.934,2.964-1.175c2.903-0.767,5.28,0.615,5.71,3.563
				c0.89,6.1-3.705,12.884-11.63,11.228c-2.089-0.437-3.205-1.657-2.967-3.737c0.407-3.553,1.104-7.075,1.727-10.601
				c0.326-1.843,0.853-3.655,1.1-5.506c0.155-1.164,0.721-1.44,1.715-1.366c0.16,0.012,0.322,0.001,0.483,0
				c2.37-0.009,2.378-0.008,1.951,2.24C155.536,74.389,155.187,76.107,154.809,78.023z M152.853,86.321
				c0.484,0.851,0.7,1.777,1.209,1.985c0.628,0.258,1.643,0.154,2.242-0.206c1.84-1.105,2.621-2.996,2.691-5.024
				c0.031-0.909-0.487-2.307-1.165-2.634c-0.65-0.313-2.262,0.186-2.691,0.832C154.141,82.78,153.6,84.589,152.853,86.321z"/>
			<path fill="#EC285C" d="M225.956,89.846c-0.532,0.389-0.711,0.502-0.869,0.638c-1.595,1.37-3.401,1.908-5.359,0.997
				c-1.975-0.918-2.653-2.736-2.693-4.778c-0.121-6.251,4.545-10.793,11.364-10c3.962,0.461,3.983,0.586,3.278,4.462
				c-0.89,4.894-1.908,9.765-2.731,14.67c-0.225,1.343-0.776,1.717-2.001,1.605c-0.786-0.072-1.583-0.013-2.559-0.013
				C224.916,94.862,225.399,92.534,225.956,89.846z M226.393,79.922c-2.251,0.1-3.317,1.181-4.048,2.625
				c-0.812,1.606-1.355,3.306-0.389,5.034c0.464,0.83,1.32,1.238,2.17,0.616c0.79-0.579,1.681-1.275,2.042-2.126
				c0.594-1.398,0.758-2.973,1.174-4.454C227.721,80.273,227.172,79.833,226.393,79.922z"/>
			<path fill="#EC285C" d="M171.659,91.895c-4.197,0.01-6.892-3.195-6.16-7.326c0.956-5.4,5.199-8.772,9.861-7.835
				c3.205,0.644,4.992,2.842,4.975,6.119C180.308,87.986,176.567,91.884,171.659,91.895z M169.614,85.322
				c0.325,1.385,0.444,2.673,1.88,3.127c1.377,0.435,2.534-0.225,3.076-1.415c0.628-1.378,1.166-2.903,1.237-4.389
				c0.04-0.84-0.739-2.05-1.502-2.518c-1.046-0.642-2.291-0.04-2.885,1.013C170.678,82.454,170.204,83.921,169.614,85.322z"/>
			<path fill="#EC285C" d="M249.142,76.93c-0.933,4.979-1.825,9.734-2.728,14.552c-1.168,0-2.222,0-3.395,0
				c-0.097-0.525-0.198-1.072-0.297-1.609c-1.105,0.592-2.116,1.328-3.247,1.702c-3.234,1.069-5.702-0.883-5.278-4.246
				c0.393-3.124,1.023-6.221,1.66-9.307c0.089-0.432,0.774-0.95,1.258-1.044c0.871-0.169,1.799-0.048,3.043-0.048
				c-0.285,1.811-0.533,3.466-0.809,5.116c-0.22,1.316-0.631,2.624-0.653,3.941c-0.013,0.771,0.372,1.88,0.946,2.224
				c0.451,0.271,1.833-0.168,2.158-0.691c0.854-1.375,1.487-2.929,1.962-4.486c0.48-1.574,0.744-3.228,0.948-4.866
				c0.12-0.964,0.48-1.31,1.423-1.251C247.078,76.976,248.03,76.93,249.142,76.93z"/>
			<path fill="#EC285C" d="M188.475,76.933c-0.393,2.258-0.747,4.334-1.119,6.407c-0.151,0.841-0.536,1.696-0.453,2.507
				c0.086,0.851,0.397,1.992,1.006,2.373c0.436,0.273,1.913-0.27,2.247-0.844c0.865-1.488,1.484-3.158,1.957-4.824
				c0.507-1.783,0.736-3.646,1.099-5.535c1.389,0,2.649,0,4.146,0c-0.547,3-1.076,5.917-1.613,8.833
				c-0.261,1.417-0.685,2.823-0.762,4.249c-0.075,1.371-0.737,1.585-1.852,1.478c-0.531-0.051-1.071-0.009-1.713-0.009
				c-0.125-0.584-0.245-1.14-0.36-1.678c-1.262,0.615-2.473,1.418-3.805,1.81c-2.682,0.79-4.943-0.809-4.723-3.578
				c0.279-3.5,1.019-6.966,1.635-10.433c0.054-0.303,0.648-0.685,1.022-0.723C186.186,76.866,187.201,76.933,188.475,76.933z"/>
			<path fill="#EC285C" d="M254.385,85.986c1.997,3.851,4.848,2.216,7.358,1.972c0.86,2.618,0.516,3.218-2.072,3.646
				c-0.37,0.061-0.742,0.107-1.112,0.17c-5.154,0.876-8.105-1.642-7.996-6.823c0.109-5.222,5.253-9.325,10.138-8.086
				c1.86,0.472,3.113,1.744,3.271,3.321c0.24,2.383-0.443,3.88-2.486,4.698c-1.265,0.507-2.675,0.681-4.036,0.91
				C256.58,85.94,255.679,85.912,254.385,85.986z M255.298,82.853c1.271-0.182,2.483-0.218,3.587-0.58
				c0.464-0.152,0.703-0.993,1.045-1.52c-0.545-0.334-1.076-0.923-1.637-0.954C256.814,79.719,255.673,80.893,255.298,82.853z"/>
			<path fill="#EC285C" d="M287.605,85.976c0.133,1.787,1.184,2.382,2.471,2.481c1.047,0.081,2.118-0.183,3.181-0.253
				c0.535-0.036,1.077,0.018,1.615,0.031c-0.064,0.881,0.215,2.072-0.252,2.588c-2.107,2.33-9.12,1.144-10.471-1.813
				c-1.485-3.249-0.848-6.408,1.284-9.222c1.999-2.639,5.269-3.735,8.304-2.899c1.755,0.483,3.007,1.85,3.168,3.46
				c0.212,2.115-0.512,3.704-2.393,4.467c-1.313,0.533-2.775,0.726-4.188,0.976C289.459,85.944,288.56,85.918,287.605,85.976z
				 M288.043,82.885c1.396-0.202,2.589-0.215,3.649-0.597c0.498-0.179,0.74-1.068,1.098-1.635c-0.627-0.291-1.293-0.888-1.873-0.813
				C289.456,80.03,288.421,80.909,288.043,82.885z"/>
			<path fill="#EC285C" d="M350.127,85.954c0.203,1.832,1.236,2.446,2.544,2.512c1.104,0.056,2.221-0.239,3.336-0.278
				c0.476-0.017,1.378,0.235,1.375,0.342c-0.027,0.828,0.002,2.216-0.411,2.384c-2.847,1.156-5.867,1.668-8.642-0.09
				c-2.531-1.603-2.618-4.209-2.221-6.889c0.732-4.943,5.664-8.348,10.226-7.031c1.819,0.525,2.969,1.858,3.154,3.657
				c0.183,1.773-0.629,3.488-2.338,4.202c-1.305,0.546-2.761,0.763-4.169,1.019C352.107,85.94,351.196,85.897,350.127,85.954z
				 M350.512,82.889c1.432-0.202,2.63-0.214,3.701-0.59c0.515-0.181,0.789-1.047,1.172-1.603c-0.676-0.298-1.386-0.901-2.022-0.831
				C351.925,80.024,351.005,80.995,350.512,82.889z"/>
			<path fill="#EC285C" d="M310.794,77.029c1.281,0,2.596,0,4.1,0c0.37,3.24,0.739,6.463,1.107,9.687
				c0.09,0.025,0.179,0.05,0.269,0.075c0.773-1.711,1.545-3.422,2.318-5.132c0.243-0.536,0.494-1.069,0.734-1.606
				c1.586-3.561,1.705-3.622,5.945-2.935c-0.146,0.353-0.25,0.696-0.42,1.002c-2.293,4.121-4.592,8.237-6.897,12.352
				c-0.531,0.948-3.9,1.619-4.726,0.926c-0.18-0.151-0.284-0.45-0.326-0.698c-0.755-4.421-1.496-8.844-2.232-13.268
				C310.65,77.337,310.727,77.229,310.794,77.029z"/>
			<path fill="#EC285C" d="M280.952,80.294c-0.971-0.21-1.819-0.582-2.631-0.513c-0.698,0.059-1.353,0.619-2.027,0.957
				c0.383,0.574,0.682,1.238,1.173,1.696c0.496,0.463,1.223,0.668,1.779,1.079c2.642,1.951,2.531,5.522-0.287,7.228
				c-2.567,1.553-5.329,1.443-8.059,0.465c-0.329-0.118-0.629-0.907-0.583-1.347c0.069-0.659,0.456-1.285,0.728-1.976
				c1.117,0.285,2.143,0.737,3.172,0.746c0.787,0.007,1.58-0.545,2.37-0.849c-0.419-0.662-0.762-1.395-1.284-1.964
				c-0.38-0.415-1.015-0.585-1.504-0.913c-2.56-1.717-2.689-5.074-0.206-6.894c2.249-1.649,4.8-1.695,7.38-1.009
				c0.328,0.087,0.726,0.804,0.686,1.187C281.584,78.899,281.21,79.579,280.952,80.294z"/>
			<path fill="#EC285C" d="M371.825,77.554c-0.287,0.866-0.584,1.758-0.906,2.729c-0.976-0.206-1.823-0.584-2.619-0.496
				c-0.754,0.083-1.454,0.655-2.178,1.011c0.422,0.552,0.783,1.167,1.283,1.635c0.419,0.393,1.015,0.591,1.506,0.915
				c3.026,1.994,2.91,5.873-0.3,7.563c-2.448,1.288-5.037,1.259-7.648,0.39c-1.427-0.475-0.75-1.364-0.523-2.191
				c0.243-0.891,0.594-1.442,1.689-0.953c0.722,0.322,1.566,0.605,2.323,0.539c0.697-0.061,1.351-0.611,2.023-0.946
				c-0.33-0.609-0.554-1.321-1.019-1.797c-0.469-0.479-1.208-0.679-1.776-1.078c-2.572-1.804-2.685-4.791-0.279-6.793
				C365.448,76.38,369.451,76.094,371.825,77.554z"/>
			<path fill="#EC285C" d="M206.514,72.847c-0.259,1.542-0.45,2.682-0.671,4.003c0.951,0.046,1.787,0.086,2.608,0.126
				c0.64,2.214,0.028,3.211-2.057,3.244c-0.916,0.015-1.366,0.318-1.511,1.245c-0.222,1.423-0.538,2.831-0.83,4.243
				c-0.4,1.93-0.084,2.38,2.246,2.644c-0.238,1.072-0.193,2.78-0.755,3.011c-1.171,0.481-2.701,0.384-4.013,0.143
				c-1.244-0.229-2.058-1.32-1.923-2.628c0.242-2.332,0.692-4.643,1.056-6.963c0.072-0.462,0.147-0.923,0.158-0.992
				c-0.669-0.729-1.543-1.333-1.449-1.646c0.267-0.889-0.323-2.534,1.601-2.391c0.256,0.019,0.785-0.397,0.781-0.604
				C201.694,72.969,204.403,73.671,206.514,72.847z"/>
			<path fill="#EC285C" d="M345.637,77.25c-0.165,0.603-0.322,1.108-0.441,1.621c-0.234,1.007-0.56,1.469-1.86,1.228
				c-3.42-0.635-6.61,3.491-5.315,6.691c0.476,1.177,1.933,1.907,3.349,1.662c0.618-0.107,1.229-0.249,1.984-0.405
				c0.045,0.802,0.244,1.486,0.069,2.056c-0.168,0.548-0.637,1.273-1.121,1.412c-3.387,0.976-6.573,0.1-8.035-2.067
				c-1.582-2.344-1.3-6.207,0.653-8.949C337.272,77.2,341.728,75.799,345.637,77.25z"/>
			<path fill="#EC285C" d="M300.49,77.034c1.139,0,2.232,0,3.459,0c-0.08,0.83-0.149,1.545-0.26,2.698
				c1.654-1.678,2.953-3.342,5.499-3.012c-0.211,1.058-0.445,2.018-0.585,2.992c-0.204,1.421-1.603,0.788-2.209,1.343
				c-1.026,0.939-2.15,1.987-2.657,3.225c-0.717,1.749-1.063,3.695-1.276,5.59c-0.16,1.425-0.718,1.864-2.043,1.712
				c-0.683-0.078-1.382-0.014-2.397-0.014C298.856,86.651,299.668,81.871,300.49,77.034z"/>
			<path fill="#EC285C" d="M208.838,91.568c0.326-1.868,0.599-3.526,0.909-5.177c0.472-2.517,1.071-5.015,1.418-7.548
				c0.198-1.446,0.671-2.156,2.209-1.927c0.622,0.093,1.27,0.015,2.242,0.015c-0.264,1.704-0.471,3.257-0.751,4.797
				c-0.515,2.834-1.071,5.661-1.615,8.49c-0.165,0.856-0.472,1.502-1.57,1.368C210.888,91.491,210.074,91.568,208.838,91.568z"/>
			<path fill="#EC285C" d="M331.884,76.932c-0.954,5.013-1.856,9.755-2.768,14.548c-1.348,0-2.509,0-3.866,0
				c0-0.607-0.095-1.238,0.016-1.831c0.688-3.671,1.508-7.319,2.095-11.004c0.219-1.375,0.715-1.877,2.049-1.726
				C330.09,76.995,330.786,76.932,331.884,76.932z"/>
			<path fill="#EC285C" d="M214.272,75.107c-1.309,0.018-2.102-0.751-2.117-2.056c-0.017-1.428,0.949-2.363,2.425-2.355
				c1.296,0.007,1.981,0.642,2.022,1.949C216.648,74.105,215.721,75.086,214.272,75.107z"/>
		</g>
	</g>
</g>
<g id="Layer_2">
</g>
</svg>
