<?xml version="1.0" encoding="utf-8"?>
<!-- Generator: Adobe Illustrator 17.0.0, SVG Export Plug-In . SVG Version: 6.00 Build 0)  -->
<!DOCTYPE svg PUBLIC "-//W3C//DTD SVG 1.1//EN" "http://www.w3.org/Graphics/SVG/1.1/DTD/svg11.dtd" [
	<!ENTITY ns_extend "http://ns.adobe.com/Extensibility/1.0/">
	<!ENTITY ns_ai "http://ns.adobe.com/AdobeIllustrator/10.0/">
	<!ENTITY ns_graphs "http://ns.adobe.com/Graphs/1.0/">
	<!ENTITY ns_vars "http://ns.adobe.com/Variables/1.0/">
	<!ENTITY ns_imrep "http://ns.adobe.com/ImageReplacement/1.0/">
	<!ENTITY ns_sfw "http://ns.adobe.com/SaveForWeb/1.0/">
	<!ENTITY ns_custom "http://ns.adobe.com/GenericCustomNamespace/1.0/">
	<!ENTITY ns_adobe_xpath "http://ns.adobe.com/XPath/1.0/">
]>
<svg version="1.1" xmlns:x="&ns_extend;" xmlns:i="&ns_ai;" xmlns:graph="&ns_graphs;"
	 xmlns="http://www.w3.org/2000/svg" xmlns:xlink="http://www.w3.org/1999/xlink" x="0px" y="0px" width="72px"
	 height="47px" viewBox="0 0 66.908 42.297" enable-background="new 0 0 66.908 42.297" xml:space="preserve">
<metadata>
	<sfw  xmlns="&ns_sfw;">
		<slices></slices>
		<sliceSourceBounds  width="471.248" height="436.116" x="21.618" y="-317.627" bottomLeftOrigin="true"></sliceSourceBounds>
	</sfw>
</metadata>
<g id="Logo">
</g>
<g id="Layer_2">
	<path fill="#FFFFFF" d="M13.745,42.297c-7.825,0-12.41-5.613-13.484-11.176C-0.773,25.758,1.17,19.152,7.73,16.049
		C8.498,5.981,17.114,0,25.301,0c4.611,0,8.876,1.775,12.144,5.026c1.742-1.034,3.686-1.574,5.693-1.574
		c3.507,0,6.917,1.656,9.119,4.428c1.774,2.233,2.591,4.936,2.377,7.757c8.061,0.343,12.274,6.903,12.274,13.384
		c0,3.461-1.158,6.689-3.262,9.09c-2.401,2.739-5.821,4.186-9.892,4.186H13.745z M25.301,2.963c-7.023,0-14.426,5.28-14.658,14.116
		c-0.016,0.591-0.381,1.116-0.93,1.336c-5.698,2.283-7.392,7.744-6.543,12.145c0.781,4.047,4.019,8.775,10.574,8.775l40.008-0.001
		c7.04,0,10.191-5.179,10.191-10.313c0-5.255-3.449-10.93-10.935-10.401c-0.467,0.036-0.926-0.159-1.231-0.516
		c-0.305-0.358-0.422-0.839-0.316-1.297c0.599-2.576,0.056-5.092-1.527-7.084c-1.646-2.071-4.187-3.308-6.799-3.308
		c-1.795,0-3.53,0.596-5.017,1.724c-0.621,0.47-1.499,0.379-2.012-0.207C33.315,4.727,29.478,2.963,25.301,2.963z"/>
</g>
</svg>
