<?xml version="1.0" encoding="utf-8"?>
<!-- Generator: Adobe Illustrator 17.0.0, SVG Export Plug-In . SVG Version: 6.00 Build 0)  -->
<!DOCTYPE svg PUBLIC "-//W3C//DTD SVG 1.1//EN" "http://www.w3.org/Graphics/SVG/1.1/DTD/svg11.dtd" [
	<!ENTITY ns_extend "http://ns.adobe.com/Extensibility/1.0/">
	<!ENTITY ns_ai "http://ns.adobe.com/AdobeIllustrator/10.0/">
	<!ENTITY ns_graphs "http://ns.adobe.com/Graphs/1.0/">
	<!ENTITY ns_vars "http://ns.adobe.com/Variables/1.0/">
	<!ENTITY ns_imrep "http://ns.adobe.com/ImageReplacement/1.0/">
	<!ENTITY ns_sfw "http://ns.adobe.com/SaveForWeb/1.0/">
	<!ENTITY ns_custom "http://ns.adobe.com/GenericCustomNamespace/1.0/">
	<!ENTITY ns_adobe_xpath "http://ns.adobe.com/XPath/1.0/">
]>
<svg version="1.1" xmlns:x="&ns_extend;" xmlns:i="&ns_ai;" xmlns:graph="&ns_graphs;"
	 xmlns="http://www.w3.org/2000/svg" xmlns:xlink="http://www.w3.org/1999/xlink" x="0px" y="0px" width="64.07px"
	 height="71.892px" viewBox="0 0 64.07 71.892" enable-background="new 0 0 64.07 71.892" xml:space="preserve">
<metadata>
	<sfw  xmlns="&ns_sfw;">
		<slices></slices>
		<sliceSourceBounds  width="471.248" height="436.116" x="21.618" y="-317.627" bottomLeftOrigin="true"></sliceSourceBounds>
	</sfw>
</metadata>
<g id="Logo">
</g>
<g id="Layer_2">
	<g id="Your_Icon">
		<path fill="#FFFFFF" d="M64.07,36.821l-3.625-0.662c0.292-1.89,0.479-3.67,0.553-5.273l-0.144-0.033
			c0.003-0.161,0.016-0.322,0.016-0.483C60.87,13.624,47.245,0,30.499,0S0.129,13.624,0.129,30.37c0,0.161,0.013,0.322,0.016,0.483
			L0,30.887c0.136,2.888,0.619,6.344,1.464,10.007c0.9,3.904,2.065,7.419,3.292,10.155l6.855-1.581
			c-0.095-2.997-0.586-6.667-1.486-10.571c-0.844-3.662-1.922-6.981-3.065-9.638l-3.218,0.742
			c0.2-14.533,12.078-26.297,26.658-26.297s26.458,11.764,26.657,26.298l-3.218-0.742c-1.143,2.656-2.221,5.975-3.065,9.638
			c-0.9,3.904-1.391,7.574-1.486,10.571l6.856,1.581c0.581-1.298,1.149-2.775,1.681-4.381l2.184,0.397
			c-2.277,12.828-13.503,22.604-26.976,22.604c-1.212,0-2.419-0.085-3.616-0.244l0.419-1.542c-1.546-0.759-3.541-1.499-5.764-2.093
			c-2.086-0.559-4.062-0.907-5.719-1.041l-1.09,4.019c1.501,0.709,3.386,1.395,5.472,1.953c2.224,0.596,4.322,0.951,6.044,1.066
			l0.056-0.204c1.388,0.199,2.791,0.311,4.2,0.311c15.63,0,28.462-12.167,29.547-27.525c0.226-0.739,0.441-1.51,0.629-2.327
			C63.747,40.13,64,38.327,64.07,36.821z"/>
	</g>
</g>
</svg>
