<?xml version="1.0" encoding="utf-8"?>
<!-- Generator: Adobe Illustrator 17.0.0, SVG Export Plug-In . SVG Version: 6.00 Build 0)  -->
<!DOCTYPE svg PUBLIC "-//W3C//DTD SVG 1.1//EN" "http://www.w3.org/Graphics/SVG/1.1/DTD/svg11.dtd" [
	<!ENTITY ns_extend "http://ns.adobe.com/Extensibility/1.0/">
	<!ENTITY ns_ai "http://ns.adobe.com/AdobeIllustrator/10.0/">
	<!ENTITY ns_graphs "http://ns.adobe.com/Graphs/1.0/">
	<!ENTITY ns_vars "http://ns.adobe.com/Variables/1.0/">
	<!ENTITY ns_imrep "http://ns.adobe.com/ImageReplacement/1.0/">
	<!ENTITY ns_sfw "http://ns.adobe.com/SaveForWeb/1.0/">
	<!ENTITY ns_custom "http://ns.adobe.com/GenericCustomNamespace/1.0/">
	<!ENTITY ns_adobe_xpath "http://ns.adobe.com/XPath/1.0/">
]>
<svg version="1.1" xmlns:x="&ns_extend;" xmlns:i="&ns_ai;" xmlns:graph="&ns_graphs;"
	 xmlns="http://www.w3.org/2000/svg" xmlns:xlink="http://www.w3.org/1999/xlink" x="0px" y="0px" width="74.074px"
	 height="74.074px" viewBox="0 0 74.074 74.074" enable-background="new 0 0 74.074 74.074" xml:space="preserve">
<metadata>
	<sfw  xmlns="&ns_sfw;">
		<slices></slices>
		<sliceSourceBounds  width="471.248" height="436.116" x="21.618" y="-317.627" bottomLeftOrigin="true"></sliceSourceBounds>
	</sfw>
</metadata>
<g id="Logo">
</g>
<g id="Layer_2">
	<path fill="#FFFFFF" d="M37.037,0C16.577,0,0,16.577,0,37.037s16.577,37.037,37.037,37.037s37.037-16.577,37.037-37.037
		S57.497,0,37.037,0z M67.488,41.833c-0.993-0.078-1.968-0.172-2.91-0.293c-0.479-1.971-1.917-3.575-3.795-4.298
		c-0.298-3.427-0.919-6.577-1.706-9.386c1.278-1.121,2.092-2.743,2.092-4.573c0-0.136-0.03-0.259-0.039-0.392
		c1.308-0.361,2.342-0.537,2.999-0.618c2.402,4.389,3.77,9.419,3.77,14.763C67.901,38.671,67.736,40.264,67.488,41.833z
		 M51.658,62.009l-0.126,0.271c-3.448-0.546-6.486-1.537-9.157-2.839c0.278-0.796,0.459-1.636,0.459-2.529
		c0-2.939-1.67-5.471-4.102-6.773c0.696-3.05,1.567-5.756,2.562-8.177c0.407,0.064,0.815,0.124,1.239,0.124
		c1.61,0,3.102-0.495,4.337-1.336c1.713,0.95,3.572,1.811,5.584,2.568c0.13,2.261,1.453,4.193,3.37,5.164
		C55.172,52.744,53.872,57.28,51.658,62.009z M24.351,65.143l-0.37-0.447c-3.11-3.713-5.887-14.307-4.108-25.912
		c0.849,2.599,1.893,5.172,3.183,7.659c1.26,2.429,2.887,5.021,4.934,7.532c-0.377,0.904-0.587,1.896-0.587,2.936
		c0,3.233,1.987,5.995,4.799,7.145c-0.042,1.116-0.073,2.246-0.078,3.412C29.397,67.033,26.79,66.247,24.351,65.143z M26.696,7.993
		c0.127,1.341,0.359,3.11,0.781,5.148c-2.164,2.095-3.984,4.313-5.482,6.58c0.196-4.274,1.01-8.014,2.309-10.767
		C25.082,8.599,25.881,8.286,26.696,7.993z M42.318,9.087c1.718,0.901,5.133,4.331,8.204,9.935
		c-1.046,1.115-1.697,2.607-1.697,4.261c0,0.247,0.045,0.479,0.073,0.717c-1.202,0.931-2.404,1.975-3.59,3.183
		c-0.862-0.331-1.793-0.533-2.776-0.533c-1.42,0-2.734,0.41-3.876,1.079c-3.217-4.259-5.052-8.816-6.097-12.71
		C35.234,12.756,38.447,10.724,42.318,9.087z M49.738,37.058c0.314-0.841,0.51-1.739,0.51-2.688c0-1.576-0.477-3.039-1.284-4.259
		c0.742-0.744,1.493-1.417,2.242-2.025c0.973,0.756,2.17,1.227,3.487,1.293c0.655,2.396,1.176,5.055,1.447,7.939
		c-0.856,0.368-1.59,0.938-2.194,1.627C52.448,38.376,51.05,37.745,49.738,37.058z M34.05,49.31c-1.028,0.141-1.98,0.482-2.836,0.99
		c-1.589-2.035-2.872-4.115-3.887-6.07c-1.276-2.456-2.303-5.019-3.104-7.604c2.095-1.377,3.487-3.744,3.487-6.441
		c0-2.408-1.133-4.533-2.867-5.95c1.116-1.929,2.475-3.84,4.093-5.676c1.327,4.003,3.404,8.416,6.625,12.547
		c-0.464,0.995-0.744,2.092-0.744,3.264c0,2.125,0.859,4.051,2.252,5.447C35.877,42.613,34.856,45.772,34.05,49.31z M61.27,17.985
		c-0.665,0.163-1.41,0.37-2.221,0.63c-1.081-0.953-2.484-1.553-4.047-1.553c-0.09,0-0.178,0.024-0.267,0.027
		c-1.905-3.53-4.024-6.45-6.05-8.617C53.666,10.51,57.984,13.816,61.27,17.985z M37.257,6.185c-2.11,1.085-4.024,2.281-5.759,3.563
		c-0.164-1.227-0.247-2.249-0.287-3.005c1.89-0.362,3.834-0.57,5.826-0.57C37.113,6.173,37.181,6.182,37.257,6.185z M6.173,37.037
		c0-9.859,4.666-18.633,11.887-24.287c-0.657,3.071-0.973,6.556-0.888,10.266c-2.86,1.13-4.895,3.91-4.895,7.167
		c0,2.547,1.248,4.784,3.15,6.188c-1.592,8.599-0.878,17.241,1.07,23.636C10.179,54.35,6.173,46.163,6.173,37.037z M36.913,67.896
		v-0.16c0.003-1.152,0.033-2.259,0.073-3.352c0.859-0.214,1.663-0.555,2.381-1.027c2.267,1.181,4.78,2.167,7.553,2.893
		c-3.107,1.055-6.423,1.651-9.883,1.651C36.995,67.901,36.956,67.896,36.913,67.896z M57.479,60.098
		c1.492-3.903,2.448-7.673,2.972-11.261c1.441-0.47,2.647-1.441,3.415-2.721c0.836,0.108,1.71,0.184,2.583,0.262
		C64.739,51.741,61.593,56.448,57.479,60.098z"/>
</g>
</svg>
